PathFileType	4	(X/Y/Z)	./resultDataOpenSim/trcMotMarkerGrf/sub06/qtm-05-08.trc
DataRate	CameraRate	NumFrames	NumMarkers	Units	OrigDataRate	OrigDataStartFrame	OrigNumFrames
250.000000	250.000000	6	24	m	250.000000	444	507
Frame#	Time	L.Toe.Tip			R.Toe.Tip			L.Ankle.Lat			R.Ankle.Lat			L.Ankle.Med			R.Ankle.Med			L.Heel			R.Heel			L.Knee.Lat			R.Knee.Lat			L.Knee.Med			R.Knee.Med			L.Thigh.Upper			R.Thigh.Upper			L.ASIS			R.ASIS			V.Sacral			L.Acromium			R.Acromium			C7			L.Elbow			R.Elbow			L.Wrist.Lat			R.Wrist.Lat
		X1	Y1	Z1	X2	Y2	Z2	X3	Y3	Z3	X4	Y4	Z4	X5	Y5	Z5	X6	Y6	Z6	X7	Y7	Z7	X8	Y8	Z8	X9	Y9	Z9	X10	Y10	Z10	X11	Y11	Z11	X12	Y12	Z12	X13	Y13	Z13	X14	Y14	Z14	X15	Y15	Z15	X16	Y16	Z16	X17	Y17	Z17	X18	Y18	Z18	X19	Y19	Z19	X20	Y20	Z20	X21	Y21	Z21	X22	Y22	Z22	X23	Y23	Z23	X24	Y24	Z24

444	1.772	1.7188972	0.033740122	-0.026782892	1.0249108	0.064129003	0.11846988	1.5951775	0.065936737	-0.049223539	1.0348258	0.20048202	0.1609559	1.5950129	0.077510176	0.037961188	1.0762169	0.19016617	0.081371586	1.5177526	0.03956094	-0.0073840221	1.0183101	0.25038927	0.098317028	1.6625089	0.43391899	-0.063503543	1.3808203	0.38007625	0.20163777	1.6334892	0.4304305	0.05380933	1.3825888	0.35531566	0.068337486	1.4941773	0.79459459	-0.13023951	1.4201556	0.74009511	0.20814861	1.5492056	0.82982441	-0.072518884	1.5203542	0.80144401	0.16759229	1.3455589	0.89130186	0.040740771	1.4812906	1.2933003	-0.15002171	1.482278	1.2921494	0.21402293	1.3981385	1.3329057	0.031323735	1.3559807	1.0072309	-0.1913109	1.4372373	0.97268907	0.30121127	1.4035631	0.78006264	-0.26753478	1.6691409	0.8845091	0.26113909
445	1.776	1.71881	0.033717913	-0.026919762	1.0367804	0.067035223	0.12003049	1.5950959	0.065809679	-0.049383943	1.0469179	0.20343778	0.16154473	1.5950411	0.077587879	0.037837879	1.0881919	0.19274261	0.081893211	1.5176807	0.039607468	-0.0074256442	1.0303343	0.25326481	0.098630556	1.6650029	0.43319027	-0.064203617	1.3932629	0.38054339	0.20275879	1.6362564	0.4297892	0.053196603	1.3955549	0.35598911	0.069078801	1.4998741	0.79556806	-0.1304767	1.4263584	0.74150054	0.20810528	1.5551669	0.83082305	-0.072846018	1.526794	0.80281017	0.16730631	1.350764	0.89297623	0.040659369	1.4879327	1.2945635	-0.1501463	1.4880582	1.2935891	0.2140587	1.4045478	1.3343497	0.031111142	1.3645219	1.0072372	-0.19161908	1.4427235	0.97406389	0.30022032	1.4153283	0.78031125	-0.26675944	1.6721473	0.88198506	0.26206271
446	1.78	1.7187255	0.033697344	-0.027063932	1.0497136	0.069780558	0.12161394	1.595002	0.065704162	-0.049633258	1.0591649	0.2063003	0.16204674	1.5950777	0.077651678	0.037709299	1.1004021	0.1953723	0.082410065	1.5176221	0.039647632	-0.0074534891	1.0422822	0.25584625	0.09882845	1.6673853	0.43253748	-0.06485981	1.4057527	0.38121924	0.20383826	1.6388542	0.42911121	0.052648533	1.40834	0.35712743	0.069912839	1.5054837	0.79649966	-0.13070781	1.4323911	0.74298709	0.20799773	1.5611342	0.83183762	-0.073156925	1.5330111	0.80427166	0.16712801	1.3562296	0.89459527	0.04054552	1.4945247	1.2959128	-0.15024379	1.4937794	1.2950864	0.21411049	1.4109166	1.3358358	0.030919976	1.3731079	1.0073179	-0.19189336	1.4478981	0.9754994	0.29899982	1.4272052	0.78068702	-0.26592666	1.6751491	0.87953958	0.26299305
447	1.784	1.7186466	0.03368227	-0.027206533	1.0635628	0.072296366	0.1232809	1.5949237	0.065624861	-0.049902734	1.0716048	0.20906402	0.16246076	1.5951233	0.0777092	0.037583825	1.1128471	0.19804208	0.082914115	1.5175795	0.039686719	-0.0074509135	1.054244	0.25810669	0.098895233	1.6696647	0.43195731	-0.065461143	1.4183019	0.38207725	0.20486356	1.6413226	0.42844048	0.052156696	1.4210567	0.35856451	0.070949311	1.5110048	0.79741164	-0.13093913	1.4384216	0.74452814	0.20779116	1.5671151	0.83286808	-0.073458982	1.538977	0.80582849	0.1670683	1.3621979	0.89616405	0.040401052	1.5010682	1.2973507	-0.15031548	1.4994505	1.2966404	0.21417867	1.4172327	1.3373533	0.030753188	1.3817203	1.0074622	-0.19215426	1.4527674	0.97703155	0.29773029	1.4391814	0.7811911	-0.2650324	1.6781234	0.87717921	0.26394131
448	1.788	1.7185784	0.033675741	-0.027337826	1.0781651	0.074569821	0.12505955	1.5948859	0.06556268	-0.050109582	1.0842542	0.21170147	0.16279113	1.5951718	0.07776845	0.037467056	1.1254952	0.20071601	0.083360525	1.5175483	0.039735176	-0.0074312057	1.0662172	0.26008558	0.098861226	1.6718311	0.43144586	-0.065997902	1.4309281	0.38309386	0.20582604	1.6436887	0.42781388	0.0517193	1.4337748	0.36018177	0.072193165	1.516437	0.7983359	-0.13116986	1.4446441	0.74607617	0.20747479	1.5730779	0.83392029	-0.073753316	1.5447065	0.80747926	0.16712568	1.3685872	0.89774996	0.040233757	1.5075693	1.2988856	-0.15036036	1.5050872	1.2982515	0.21426619	1.4234932	1.3389032	0.03060366	1.3903445	1.0076759	-0.1924254	1.4572736	0.97866555	0.29651388	1.451255	0.78182585	-0.26407299	1.6810269	0.87491369	0.26491911
449	1.792	1.7185241	0.033677738	-0.027451815	1.0934144	0.076664743	0.12678251	1.5948747	0.06550421	-0.050233691	1.0970916	0.21417779	0.16304766	1.5952262	0.077837824	0.037360474	1.1383006	0.20336183	0.083705874	1.5175151	0.039797653	-0.0074390502	1.0781033	0.26183101	0.098832989	1.6738751	0.43100125	-0.066460437	1.4436386	0.38426031	0.20672667	1.6459541	0.42725776	0.051339531	1.446443	0.3619533	0.073435885	1.5217937	0.79929491	-0.13139116	1.4511807	0.74760467	0.20707079	1.5789834	0.83500501	-0.074039838	1.5503069	0.80921941	0.16726944	1.3751959	0.89940703	0.040044824	1.5140359	1.3005254	-0.15038063	1.5107018	1.2999141	0.21437107	1.4296995	1.3404803	0.030458231	1.398977	1.0079635	-0.19271956	1.4614603	0.98035416	0.29537071	1.4634323	0.78259549	-0.26304843	1.6838381	0.87274951	0.26593033
